<svg id="SvgjsSvg1065" width="288" height="288" xmlns="http://www.w3.org/2000/svg" version="1.1" xmlns:xlink="http://www.w3.org/1999/xlink" xmlns:svgjs="http://svgjs.com/svgjs"><defs id="SvgjsDefs1066"></defs><g id="SvgjsG1067" transform="matrix(1,0,0,1,0,0)"><svg xmlns="http://www.w3.org/2000/svg" id="Layer_1" x="0" y="0" version="1.1" viewBox="0 0 52 52" xml:space="preserve" width="288" height="288"><path d="M14.342 3.872a1 1 0 00-.983-1.742 25.098 25.098 0 00-6.778 5.569 24.748 24.748 0 00-4.523 7.803 1 1 0 101.883.671A22.785 22.785 0 018.101 9a23.127 23.127 0 016.24-5.127zM49.93 15.523a24.74 24.74 0 00-4.597-7.432 25.126 25.126 0 00-7.161-5.55 1 1 0 00-.922 1.775 23.124 23.124 0 016.593 5.11 22.76 22.76 0 014.227 6.833 1 1 0 101.86-.736z" fill="#ffffff" class="color000 svgShape"></path><path d="M25.78 3.076c-11.91 0-21.61 9.56-21.61 21.32 0 8.383 5.065 16.024 12.74 19.442l-3.824 4.516a1.002 1.002 0 0 0 .763 1.647 1 1 0 0 0 .764-.354l4.28-5.054c2.23.735 4.536 1.133 6.886 1.133 2.36 0 4.667-.398 6.898-1.134l4.279 5.055a1 1 0 0 0 1.527-1.293l-3.823-4.516C42.334 40.42 47.4 32.779 47.4 24.396c0-11.76-9.7-21.32-21.62-21.32zm13.886 29.316a1 1 0 0 1-1.37.352l-11.511-6.81v.6a1 1 0 1 1-2 0v-1.782l-2.764-1.635a1 1 0 1 1 1.018-1.72l1.746 1.032V8.349a1 1 0 1 1 2 0v15.263l12.53 7.411a1 1 0 0 1 .35 1.37z" fill="#ffffff" class="color000 svgShape"></path></svg></g></svg>